Patient4_TMGait_0pt8_01_right_29_EMG.mot
version=1
nRows=37
nColumns=33
inDegrees=no
endheader
time	1LAddLong	2LGlutMax	3LGlutMed	4LIliopsoas	5LSemiMemb	6LBicFemLong	7LRecFem	8LVastMed	9LVastLat	10LGasMed	11LTibAnt	12lTibPost	13LPeroneusLong	14LSol	15LExtDigLong	16LFlexDigLong	17RAddLong	18RGlutMax	19RGlutMed	20RIliopsoas	21RSemiMemb	22RBicFemLong	23RRecFem	24RVastMed	25RVastLat	26RGasMed	27RTibAnt	28RTibPost	29RPeroneusLong	30RSol	31RExtDigLong	32RFlexDigLong
32.4	0.014648	-0.13397	0.025482	-0.000458	0.024872	-0.09201	0.07019	-0.007782	-0.35049	-0.029907	-0.013733	-0.005646	-0.578	0.097656	-0.12741	0.00824	0.025024	0.56641	0.62225	0.037384	0.30945	-0.02182	0.37994	0.19836	0.103	0.001221	0.2002	-0.012817	0.012817	0.002747	-0.007324	0.002289
32.401	0.013123	-0.12634	0.038147	-0.002594	0.001373	-0.16266	0.13199	0.002899	-0.26886	-0.057068	0.005188	0.000458	-0.19028	0.17731	-0.026703	0.009155	0.016479	0.53207	0.4129	0.11688	0.30868	-0.027466	0.39246	0.11185	0.086517	0.003357	0.2327	-0.010223	0.23926	0.093689	-0.005951	0.003662
32.402	0.00885	-0.1535	-0.007782	-0.012665	0.001221	-0.088806	0.15854	-0.002441	-0.19409	-0.077515	0.019836	-0.006256	-0.37155	0.22842	0.10422	-0.000763	0.057373	0.52353	0.46921	0.10391	0.33127	-0.041809	0.38528	0.093231	0.067139	-0.00351	-0.013275	-0.010529	0.18234	0.31342	-0.007782	0.001678
32.403	0.009155	-0.16968	-0.020294	-0.00412	0.017395	-0.44449	0.11322	-0.004272	-0.18753	-0.094452	0.036163	0.00885	-0.057068	0.18707	0.032806	0.010529	0.044708	0.51849	0.93918	-0.046082	0.30991	-0.055237	0.31143	0.032654	0.065002	-0.009308	-0.58548	-0.013123	0.18265	0.26276	-0.002594	0.010834
32.404	0.025482	-0.14526	-0.05127	0.000458	0.11185	-0.79483	0.077972	-0.008698	-0.15915	-0.057831	0.050201	-0.004272	0.40878	0.31952	0.028381	0.012054	0.019073	0.48706	0.72647	-0.10696	0.3064	-0.049744	0.15472	0.031433	0.059509	-0.007782	-0.55176	-0.010529	0.30655	0.095062	-0.001678	0.005188
32.405	0.024719	-0.087585	-0.007782	-0.019226	0.096588	-0.34515	0.075989	-0.010376	-0.10544	-0.009766	0.074921	-0.002899	1.18	0.3302	0.068665	0.016327	-0.000305	0.4216	0.72632	-0.015106	0.33142	-0.050812	0.047455	0.015869	0.058594	-0.001221	-0.49469	-0.004272	0.38132	0.04303	0.001373	0
32.406	0.00824	-0.063019	0.01709	0.02594	0.058746	-0.081787	0.067596	-0.01236	-0.002136	0.16861	0.020752	-0.002594	-0.46295	0.068512	-0.023956	0.021973	0.00351	0.3801	0.49988	0.11169	0.35248	-0.040741	0.15015	0.034027	0.066376	-0.005951	-0.2449	-0.007019	0.43182	0.021362	0.000916	0.004272
32.407	0.00473	-0.025024	0.035706	0.030518	0.020905	0.014191	0.051422	0.001831	0.02594	0.2536	-0.011597	-0.001221	-0.21896	-0.14496	-0.062256	0.021515	-0.003052	0.39581	0.52597	0.07309	0.34668	-0.042419	0.075073	0.064392	0.067291	-0.001221	-0.14984	-0.005951	-0.13321	0.020905	0.000305	0.001221
32.408	-0.002899	-0.032959	-0.009918	0.007477	0.019836	0.15137	0.070648	0.005341	-0.07782	0.31296	-0.06134	0.000305	-0.23224	0.027161	0.031128	0.002289	0.009308	0.36682	0.60089	0.007935	0.33524	-0.045624	0.15747	0.003967	0.050812	-0.00412	-0.15488	-0.009308	-0.35324	-0.005646	-0.001068	-0.00473
32.409	-0.011292	-0.001373	-0.04837	-0.003815	0.011139	0.092621	0.093536	0.019531	-0.076141	0.48111	-0.029602	-0.003052	0.51529	0.043488	0.007019	-0.005341	0.012207	0.29694	0.53696	0.029297	0.30716	-0.032501	0.30823	-0.024872	0.033112	-0.00946	-0.066833	-0.004425	-0.30945	0.010376	0.000763	-0.001831
32.41	-0.007477	0.062256	0.10727	-0.012817	0.006256	0.002747	-0.00946	0.024872	-0.030823	0.76843	-0.031128	-0.000458	0.62744	0.079193	0.053406	-0.001984	0.049744	0.36926	0.53467	0.091705	0.30579	-0.061646	0.3305	-0.018005	0.02533	-0.010681	-0.017242	-0.006104	-0.008087	0.011597	0.001068	-0.012665
32.411	0.002441	0.069122	0.18997	-0.00824	0.008545	0.000458	-0.03952	0.005798	0.024567	0.74143	0.000458	0.000153	-0.43884	0.019073	0.00946	-0.007629	0.049896	0.27069	0.49118	0.12207	0.30441	-0.035095	0.36636	-0.064545	0.015869	-0.004883	-0.066071	-0.007019	-0.06073	-0.029907	0.001526	-0.012512
32.412	-0.001526	0.065155	0.051727	-0.002136	0.00473	0.04715	0.03891	-0.011749	-0.001984	0.033112	-0.032654	0.007019	-0.065918	0.02655	-0.059662	-0.000763	0.053711	0.26718	0.36575	0.09964	0.29022	-0.053406	0.30945	-0.10712	0.022888	-0.010223	0.038147	0.008545	-0.39795	-0.069275	0.001678	-0.013885
32.413	-0.006256	0.061188	-0.11322	0.013275	0.003357	0.12863	0.10117	-0.009918	-0.058136	-0.28671	-0.018463	0.007629	-0.46814	0.021973	-0.072174	-0.01358	0.032959	0.19073	0.34851	0.095825	0.27588	-0.048676	0.28046	-0.10483	0.007477	-0.001526	-0.046539	-0.002594	-0.2626	-0.12009	0.000305	-0.011139
32.414	-0.007324	0.061493	-0.15564	0.005646	0.007629	-0.008545	0.070801	0.021515	-0.053558	-0.037079	0.016479	-0.002441	0.048981	-0.068359	-0.21103	-0.010071	0.026398	0.22781	0.37415	0.10407	0.25131	-0.054474	0.25421	-0.1442	0.010223	0.000305	0.008545	-0.000153	0.042572	-0.14542	0.001068	-0.020447
32.415	-0.011444	0.11124	-0.19989	0.008392	0.009155	-0.024109	0.031891	0.026703	-0.028381	-0.074768	0.018921	-0.001373	-0.009308	-0.10086	-0.15121	0.032501	0.016785	0.23254	0.42587	0.03418	0.24521	-0.04425	0.36301	-0.16464	0.00473	0.002136	0.32044	-0.002441	0.1326	-0.13001	0.000458	-0.008392
32.416	-0.005646	0.13229	-0.067444	-0.016785	0.011139	0.018005	0.017853	0.023346	-0.045166	-0.40283	-0.014038	0.014801	-0.016327	0.080414	0.073547	0.007172	0.13138	0.1976	0.36133	0.028992	0.23209	-0.036926	0.35584	-0.16785	0.004272	0	0.40375	0.000305	0.032806	-0.08606	-0.006714	-0.007629
32.417	0.006561	0.15518	0.14969	-0.000916	0.003815	0.058594	-0.028381	0.00061	0.018311	-0.41657	0.012207	-0.000763	0.066223	0.084534	0.090942	-0.003815	0.26855	0.18997	0.2562	-0.05249	0.215	-0.035858	0.36896	-0.17792	0.001526	-0.013123	0.457	-0.001068	-0.17868	0.006866	-0.002441	-0.006714
32.418	-0.003052	0.18265	0.13565	0.036011	0.008392	0.057068	-0.054626	-0.003357	-0.020447	-0.24094	0.057373	0.003967	-0.62225	0.003662	0.14252	-0.005341	0.24506	0.12085	0.15564	-0.083466	0.21652	-0.035706	0.40573	-0.19562	-0.007324	-0.013885	0.60944	-0.000153	-0.13168	0.046234	-0.000916	-0.008698
32.419	-0.00824	0.1709	0.14496	0.027771	-0.004272	0.082092	-0.17334	0.007629	0.014496	-0.081482	0.052185	0.002594	0.11917	-0.085602	0.020447	-0.006866	0.16205	0.056458	0.51651	-0.083923	0.21851	-0.012512	0.40802	-0.19012	-0.024872	-0.012054	0.28458	-0.006866	-0.008392	0.003357	-0.010376	-0.007477
32.42	-0.013733	0.15381	0.12024	0.023193	-0.002289	0.040283	-0.072632	0.002136	0.12161	-0.074615	0.063171	0.009766	0.035248	-0.005493	0.066528	0.02121	0.067749	0.041046	0.69168	-0.026703	0.21729	-0.006409	0.2771	-0.18051	-0.035095	-0.005341	-0.1178	-0.002594	0.002136	-0.039825	-0.002136	-0.002899
32.421	-0.014496	0.10696	0.000916	0.036621	-0.002899	-0.040741	0.005188	-0.002441	0.11017	-0.062256	0.0383	-0.006866	-0.33646	0.056152	-0.08606	-0.008545	-0.013885	-0.031586	0.16388	0.001678	0.21423	-0.021515	0.29129	-0.14328	-0.037384	-0.005798	-0.31113	-0.00351	-0.019226	0.018158	0.000153	-0.000916
32.422	-0.011597	0.11292	-0.074005	0.022278	-0.011902	-0.085297	0.022278	-0.014496	0.10407	-0.098877	-0.031738	-0.001984	0.41519	0.26871	-0.025787	0.011139	-0.079346	-0.013885	0.036469	-0.050049	0.2211	-0.014801	0.23025	-0.19913	-0.056	-0.007782	-0.028687	-0.002441	-0.036011	0.008087	-0.000305	-0.005798
32.423	-0.018616	0.11185	0.01236	0.016785	-0.032196	-0.010986	0.094147	-0.013885	0.10819	-0.026855	-0.054626	0.01709	0.17227	0.018158	-0.093842	-0.005341	-0.070343	0.018158	0.10742	-0.04364	0.21301	-0.013885	0.084534	-0.22201	-0.050812	0.001373	0.099487	-0.004425	0.026855	-0.19669	-0.006104	0.002747
32.424	-0.015564	0.13672	0.079651	0.016632	-0.041656	0.11368	0.066223	-0.006714	0.12558	0.10635	-0.014343	0.009308	-0.70938	-0.10635	-0.03891	0.001984	-0.06012	0.042877	0.73181	-0.018616	0.21668	-0.019684	0.008392	-0.20935	-0.058289	0.001678	0.29022	-0.002899	0.11673	-0.23056	0.001831	-0.002441
32.425	-0.007477	0.15579	0.10178	0.001526	-0.033569	0.081024	0.015259	-0.005798	0.13886	0.10376	-0.006256	0.013428	-0.383	-0.073242	-0.002594	0.010681	-0.038757	0.091858	0.91965	-0.030518	0.21057	-0.038605	0.055847	-0.22018	-0.069427	0.001221	0.26443	-0.005646	0.077057	-0.12711	-0.001526	-0.004272
32.426	-0.00885	0.13382	0.13062	-0.007019	0.086823	0.02121	0.037842	-0.001221	0.12756	0.1413	-0.010223	0.007629	-0.14862	-0.32867	-0.13214	-0.015564	-0.063324	0.071106	0.7634	0.054779	0.20538	-0.016632	0.096588	-0.16785	-0.040894	-0.005341	-0.36468	-0.002136	-0.15747	0.054169	0.00061	-0.010986
32.427	-0.005951	0.11917	0.018921	0.009003	0.021973	0.039978	0.10101	-0.00351	0.10117	0.14236	0.028687	0.026245	-0.12772	-0.29663	-0.092773	-0.055237	-0.075073	-0.022888	0.61127	0.015106	0.20462	-0.028229	0.15274	-0.12985	-0.027313	-0.004883	-0.17044	-0.003204	-0.19257	0.14465	0.000916	-0.010681
32.428	-0.009766	0.11337	-0.0354	0.01297	-0.052948	0.077057	0.13886	-0.00473	0.07431	0.27649	-0.009613	0.015869	-0.15137	-0.17532	0.037231	-0.037689	-0.092621	-0.04303	0.42358	-0.051727	0.20172	-0.005951	0.20111	-0.086823	-0.041351	-0.006866	0.18478	-0.003052	-0.085602	0.14877	0.002136	-0.009003
32.429	-0.020447	0.081329	-0.003815	-0.000305	-0.05188	0.066833	0.080719	0.006409	0.033875	0.22034	-0.005798	-0.002594	-0.075226	-0.11597	0.10132	0.086517	-0.072327	-0.050201	0.59494	-0.14908	0.21271	-0.003662	0.27008	-0.058441	-0.048523	-0.007324	-0.000305	-0.002136	0.1944	0.11887	0.001526	-0.010986
32.43	-0.010834	0.10178	-0.00473	0.00885	-0.00351	0.013275	0.074463	0.005188	0.02655	-0.31097	0.017853	-0.068665	-0.096436	-0.20737	0.059357	0.11841	-0.050507	-0.048828	0.67841	-0.18982	0.21729	0.006104	0.31677	-0.038452	-0.047607	-0.006104	-0.54489	-0.002289	0.25559	0.062256	-0.000458	-0.010834
32.431	0.004578	0.085297	-0.076599	-0.006714	0.065918	-0.16861	0.035248	-0.001221	0.04715	-0.22201	0.04364	0.016022	-0.043945	-0.50217	0.096893	0.011597	-0.051727	-0.063477	0.70084	0.025787	0.22492	-0.000458	0.40527	-0.007629	-0.043488	-0.008392	-0.40466	-0.002594	-0.002594	0.060272	-0.001984	-0.012665
32.432	0.010223	0.10666	-0.025787	-0.011292	0.094299	-0.27268	0.037384	-0.00412	0.14816	-0.22797	0.051117	0.071564	-0.037384	-0.51025	0.1178	-0.006561	-0.037537	-0.071564	0.63049	0.26337	0.22263	-0.000458	0.4393	0.04776	-0.030823	-0.013123	-0.31433	-0.000763	-0.039368	-0.022736	-0.003662	-0.007172
32.433	0.014191	0.15732	0.045471	0.007629	0.062256	-0.019073	0.046387	0.002747	0.2002	-0.20813	-0.008545	-0.061493	-0.42114	-0.27557	0.12466	-0.017242	-0.04715	-0.024567	0.74905	0.41153	0.21851	0.027466	0.34302	0.061798	-0.042877	-0.007019	-0.32135	-0.000458	0.024872	-0.065918	-0.000916	-0.012817
32.434	0.008698	0.11414	0.06424	0.006866	0.03006	0.058441	0.043945	0.014038	0.18448	-0.23834	-0.026703	-0.053406	-0.067139	-0.36102	0.14175	-0.024872	-0.072174	0.004272	0.62653	0.29678	0.20645	0.015869	0.27008	0.082703	-0.03952	-0.001068	-0.25909	-0.002747	0.099182	-0.081177	-0.001526	0.00885
32.435	0.009308	0.093536	0.059967	-0.00412	0.027924	-0.003967	0.092163	0.011444	0.20157	-0.071259	0.002747	0.023956	0.14313	-0.29724	0.097046	-0.006409	-0.050507	0.003357	0.32028	0.1387	0.20599	0.007477	0.17624	0.014801	-0.030212	-0.002747	-0.041504	0.001068	0.056152	-0.08316	0.000458	-0.007935
32.436	0.006104	0.086212	0.018005	0.005341	0.011444	-0.010681	0.15717	0.006714	0.18036	0.168	0.037384	0.008545	0.43488	-0.061646	-0.000153	-0.00412	-0.005951	0.008698	0.48859	0.037689	0.18662	0.014954	0.12955	-0.027924	-0.039673	-0.001984	0.071869	-0.000763	0.023499	-0.000763	0.009308	0.000305
